<svg width="100" height="78" viewBox="0 0 100 78" fill="none" xmlns="http://www.w3.org/2000/svg">
<path d="M77.1251 16.5833C77.4438 16.2951 77.7664 16.0248 78.1229 15.7839C78.1049 16.2693 78.0975 16.7576 78.0268 17.2388C77.9848 17.1798 77.9527 17.1104 77.9181 17.0467C77.9638 16.9263 77.987 16.862 77.9638 16.7337C77.7041 16.6733 77.4226 16.6738 77.1711 16.5994C77.1555 16.5948 77.1405 16.5887 77.1251 16.5833Z" fill="#040E30"/>
<path d="M97.1655 64.8354C98.1095 64.7974 99.0555 64.8136 100 64.8195C99.2049 66.2049 98.0479 67.649 97.1126 68.9703L94.9652 72.0085L94.9268 76.9339L92.2891 76.9377L92.2501 71.8891C91.6206 71.1458 87.3871 65.3003 87.2373 64.8269C88.182 64.8004 89.1362 64.813 90.0807 64.8471C90.4209 65.4197 90.8675 65.9672 91.256 66.5118L93.6417 69.8359C94.7305 68.1242 96.0195 66.5162 97.1655 64.8354Z" fill="#040E30"/>
<path d="M4.07758 64.826C4.93121 64.7094 5.88308 64.7794 6.74472 64.7828L11.5404 64.7954L11.5365 67.307C9.96998 67.323 8.40199 67.3059 6.83535 67.3056C6.01298 67.3056 5.11709 67.2375 4.30508 67.3696C3.93096 67.4305 3.48157 67.5499 3.20657 67.8295C2.91256 68.1282 2.88081 68.6675 2.8697 69.0638C2.85319 69.6466 2.89545 70.2325 2.89509 70.8158C2.89458 71.6003 2.80696 72.4579 2.93132 73.2326C2.97056 73.4776 3.04032 73.6922 3.22096 73.8696C3.46784 74.1118 3.82835 74.2355 4.16172 74.2973C5.31472 74.5113 7.91137 74.371 9.21463 74.3669L11.5411 74.3626L11.5434 76.9581C9.94739 76.9359 8.3513 76.9225 6.75511 76.9178C5.60786 76.91 4.39698 76.958 3.26473 76.7591C2.57485 76.6378 1.86985 76.4253 1.30622 75.996C0.533338 75.4075 0.289714 74.5373 0.166472 73.6172C-0.0641405 71.8947 -0.219788 67.4212 0.865719 66.0635C1.62231 65.1174 2.95069 64.9286 4.07758 64.826Z" fill="#040E30"/>
<path d="M63.4483 64.8104C64.2936 64.8276 65.1405 64.8219 65.986 64.8266C67.7163 68.9168 69.8539 72.8332 71.5523 76.9398L68.6575 76.9339C68.3328 76.1826 68.0329 75.4189 67.7245 74.6606L66.0117 74.6583L61.806 74.6666L60.7878 76.9258C59.8363 76.916 58.8849 76.9261 57.9338 76.9562C59.8259 72.9358 61.568 68.8383 63.4483 64.8104Z" fill="#040E30"/>
<path d="M64.7095 68.154C65.0742 68.549 66.3744 71.6783 66.7 72.3879C66.0966 72.4092 65.4906 72.4034 64.8869 72.4087L62.8081 72.4257L64.7095 68.154Z" fill="#FEFEFE"/>
<path d="M83.7106 64.8315L85.2942 64.8409L85.3049 76.9416L83.3085 76.9241C82.5899 76.0831 81.7948 75.3048 81.0208 74.5151C79.3865 72.8479 77.7117 71.2193 76.1081 69.5227C76.1244 71.9975 76.127 74.4723 76.116 76.9471L74.9431 76.9354L73.5046 76.9361C73.543 72.9114 73.5587 68.8866 73.5517 64.8617L75.19 64.8722C75.9503 65.81 76.9241 66.6681 77.7785 67.5237C79.4655 69.1962 81.1375 70.8836 82.7944 72.5858L82.7922 64.8465L83.7106 64.8315Z" fill="#040E30"/>
<path d="M40.9332 64.8076L43.3928 64.8044C43.3301 68.8599 43.4261 72.9154 43.3617 76.9713L40.6789 76.9687C40.6632 75.4771 40.6786 73.9836 40.6796 72.4917C40.6912 71.436 40.6887 70.3804 40.6718 69.3248C39.1496 71.3967 37.6963 73.5257 36.1461 75.576C35.5583 74.826 35.0409 74.0152 34.4917 73.2362C33.5489 71.906 32.5915 70.5864 31.6193 69.2775L31.6227 76.935L28.9784 76.93C28.976 72.8966 28.9358 68.8594 28.9836 64.8267L31.4762 64.8054C32.9338 67.0652 34.6841 69.1668 36.2314 71.3694C37.7798 69.1844 39.4889 67.0595 40.9332 64.8076Z" fill="#040E30"/>
<path d="M46.6497 64.8159L51.6183 64.8124C52.7022 64.814 53.8627 64.7501 54.9336 64.9204C55.4636 65.0048 55.9876 65.171 56.4335 65.4772C57.1195 65.9482 57.4925 66.6669 57.6377 67.4713C57.8097 68.425 57.8431 70.5913 57.6573 71.5331C57.5704 71.9732 57.4083 72.4009 57.1442 72.7662C56.5444 73.5956 55.6338 73.828 54.6823 73.9827C52.9498 74.0582 51.2098 74.0234 49.4756 74.0187L49.4709 76.9618C48.5261 76.9397 47.5814 76.938 46.6366 76.9564L46.6497 64.8159Z" fill="#040E30"/>
<path d="M49.4801 67.232C50.5657 67.2283 53.5928 67.0245 54.3874 67.491C54.613 67.6234 54.7213 67.8573 54.7811 68.1022C54.9286 68.7053 54.9426 70.3168 54.789 70.9216C54.7438 71.0998 54.6474 71.2568 54.5525 71.4123C53.6951 71.9213 50.6101 71.7229 49.484 71.7215L49.4801 67.232Z" fill="#FEFEFE"/>
<path d="M49.9405 0C50.3727 0.191007 52.0132 1.65889 52.4884 2.04313L62.4154 10.1524C63.2352 10.8237 64.1562 11.4324 64.934 12.1466C63.803 13.0392 62.6773 13.9387 61.5571 14.8448C60.8621 15.4092 60.1644 16.0644 59.4087 16.5422C57.6354 15.1113 55.8714 13.6689 54.1168 12.2152C52.7308 11.0478 51.3698 9.82604 49.9226 8.73478C49.9133 5.82566 49.8802 2.90815 49.9405 0Z" fill="#A5A4A6"/>
<path d="M49.9129 26.7564C52.8513 24.0932 56.0124 21.643 59.0834 19.1345C60.6023 17.8937 62.1159 16.652 63.6552 15.4361C64.4996 14.7691 65.3406 14.0726 66.2406 13.4812L66.2396 21.9052C61.7132 25.7745 56.9391 29.3552 52.4349 33.2524C51.8484 33.7598 50.2945 34.937 49.9046 35.4647L49.8645 35.4758C49.9142 34.7382 49.877 33.9787 49.8737 33.2384L49.855 29.1583C49.8522 28.3782 49.7896 27.5265 49.9129 26.7564Z" fill="#41486C"/>
<path d="M16.865 64.825C17.707 64.707 18.6181 64.7798 19.4663 64.7871C21.0779 64.8012 23.2163 64.5625 24.6046 65.5523C25.3233 66.0645 25.6621 66.8319 25.7867 67.6823C25.9506 68.8008 25.9783 73.266 25.7828 74.3423C25.6928 74.8372 25.5226 75.321 25.2088 75.7203C24.5103 76.6092 23.3537 76.7831 22.3057 76.9124C20.3264 77.0675 15.9734 77.2761 14.3739 76.0692C13.6797 75.5455 13.3913 74.7567 13.2736 73.9237C13.104 72.7241 13.0692 68.6483 13.2687 67.5267C13.3617 67.0037 13.5345 66.4823 13.8673 66.0608C14.5838 65.1535 15.7866 64.9456 16.865 64.825Z" fill="#040E30"/>
<path d="M17.4633 67.3233C18.2738 67.2288 21.8754 67.1509 22.4764 67.4868C22.8042 67.6699 22.9517 68.2453 23.0048 68.5825C23.1327 69.3939 23.1091 72.4328 23.0068 73.2789C22.9763 73.5314 22.9358 73.8239 22.7692 74.027C22.5068 74.3473 22.1194 74.4034 21.7322 74.4498C20.4266 74.5158 19.0495 74.5549 17.7471 74.4658C17.0687 74.4193 16.591 74.3079 16.1352 73.7789C16.1294 73.7531 16.1235 73.7271 16.1182 73.7011C15.9413 72.8382 15.8628 68.3908 16.2865 67.8034C16.5691 67.4115 17.0232 67.3771 17.4633 67.3233Z" fill="#FEFEFE"/>
<path d="M49.8513 50.759C51.8022 48.8764 53.8937 47.1619 55.9612 45.412L62.1231 40.1502C65.2661 37.4547 68.442 34.7985 71.6508 32.1817C72.9902 31.0738 74.3001 29.8933 75.6737 28.8309C73.336 35.4313 69.5578 41.6569 64.5254 46.556C61.8924 49.1193 58.938 51.4035 56.0515 53.6713L52.0451 56.7964C51.3652 57.3303 50.6652 58.0043 49.9232 58.438L49.8502 58.4124C50.0193 57.9722 49.8565 51.7726 49.8513 50.759Z" fill="url(#paint0_linear_1_4)"/>
<path d="M77.1251 16.5833C77.1405 16.5887 77.1555 16.5948 77.1711 16.5994C77.4226 16.6738 77.7041 16.6733 77.9639 16.7337C77.987 16.862 77.9639 16.9263 77.9181 17.0467C77.9528 17.1105 77.9849 17.1799 78.0269 17.2389C77.9635 19.4584 77.3953 22.9205 76.7459 25.0521C75.9915 25.7719 75.1475 26.4165 74.3451 27.0824L70.506 30.2842L61.6854 37.5073C57.7123 40.6967 53.6978 43.8666 49.8901 47.253C49.9397 46.1678 49.8887 45.0671 49.8857 43.9803C49.8815 42.5059 49.9126 41.029 49.8851 39.555C49.8597 38.1975 49.8015 36.8332 49.8645 35.4758L49.9046 35.4647C49.9382 36.5955 49.9121 37.734 49.9131 38.8656C51.0342 37.59 52.4901 36.4905 53.7829 35.3889C57.3773 32.3261 61.1244 29.4455 64.8073 26.4912L72.8483 20.0149C74.2598 18.8735 75.6409 17.628 77.1251 16.5833Z" fill="url(#paint1_linear_1_4)"/>
<path d="M21.6864 15.777C22.4535 16.3432 23.1877 16.9655 23.937 17.5564C25.2241 18.5712 26.5209 19.5754 27.7946 20.6066C28.8176 21.4349 29.7868 22.3544 30.8976 23.0643C30.8973 23.9705 30.9023 24.868 30.984 25.7714C31.1786 27.9248 31.7646 30.0524 32.5915 32.0469C35.9745 40.2073 43.3169 45.2755 49.8513 50.7591C49.8564 51.7726 50.0193 57.9722 49.8502 58.4125C45.7133 55.2572 41.5257 52.0737 37.6404 48.6138C27.8717 39.9147 22.4352 28.843 21.6864 15.777Z" fill="#040E30"/>
<path d="M49.9405 0C49.8802 2.90815 49.9132 5.82566 49.9226 8.73481L49.9128 26.7564C49.7896 27.5266 49.8522 28.3782 49.8549 29.1583L49.8735 33.2385C49.8769 33.9787 49.9141 34.7383 49.8644 35.4759C49.8014 36.8333 49.8597 38.1975 49.885 39.555C49.9125 41.029 49.8814 42.5059 49.8857 43.9803C49.8887 45.0672 49.9397 46.1678 49.89 47.2531L49.7936 47.3062C49.3634 47.1618 44.272 42.6858 43.4687 41.9969C43.4128 37.9963 43.4051 33.9956 43.4455 29.9948L43.4337 13.454C42.5915 14.2055 41.7006 14.912 40.8339 15.6355L40.8433 39.5645C37.0496 35.8305 34.3267 31.1607 33.7752 25.7986C33.6213 24.3019 33.662 22.7915 33.6607 21.289C33.6582 18.632 33.7072 15.964 33.632 13.3085C34.2263 12.706 34.9395 12.1901 35.5971 11.6581L39.1439 8.80161L49.9405 0Z" fill="#040E30"/>
<defs>
<linearGradient id="paint0_linear_1_4" x1="72.0953" y1="45.4985" x2="51.8212" y2="41.4335" gradientUnits="userSpaceOnUse">
<stop stop-color="#2F2F4E"/>
<stop offset="1" stop-color="#505A7E"/>
</linearGradient>
<linearGradient id="paint1_linear_1_4" x1="76.915" y1="32.7769" x2="50.4827" y2="31.084" gradientUnits="userSpaceOnUse">
<stop stop-color="#2C2C4C"/>
<stop offset="1" stop-color="#4F587D"/>
</linearGradient>
</defs>
</svg>
